<svg xmlns="http://www.w3.org/2000/svg" viewBox="0 0 320 320" role="img" aria-labelledby="title desc">
  <title id="title">Shadok — live development agent</title>
  <desc id="desc">A round, ink-drawn Shadok bird with a long pointed beak, thin legs, a cyan agent visor and a small antenna.</desc>
  <g stroke="#171b23" stroke-width="6" stroke-linecap="round" stroke-linejoin="round">
    <!-- Deliberately uneven curves preserve the drawing's spare, lively silhouette. -->
    <path d="M126 206 115 277 91 286 M115 277 133 285 M162 210 178 274 157 287 M178 274 200 282" fill="none"/>
    <path d="m81 143-32-17 13 24-18 13 35 4" fill="#fffdf7"/>
    <path d="M190 92c-17-22-48-32-76-24-35 9-53 37-50 73 1 40 27 70 63 75 33 5 63-10 77-39 13-28 8-62-14-85Z" fill="#fffdf7"/>
    <path d="m204 116 89 36-88 16" fill="#fffdf7"/>
    <path d="m211 143 64 8" fill="none" stroke-width="4"/>
    <path d="M112 72 101 46 111 30" fill="none" stroke-width="5"/>
    <circle cx="114" cy="24" r="8" fill="#58d6cf" stroke-width="4"/>
    <path d="M112 99c18-10 54-12 73-1 10 7 13 29 3 40-13 13-52 14-70 3-11-7-15-32-6-42Z" fill="#58d6cf" stroke-width="5"/>
    <ellipse cx="138" cy="118" rx="13" ry="18" fill="#fffdf7" stroke-width="4"/>
    <ellipse cx="174" cy="116" rx="12" ry="18" fill="#fffdf7" stroke-width="4"/>
    <path d="m142 116 1 7m34-9 1 7" fill="none" stroke-width="7"/>
    <path d="M86 159q16-11 32 3l-17 9 19 12" fill="none" stroke-width="4"/>
  </g>
</svg>
